<?xml version="1.0" encoding="UTF-8"?>
<svg id="Calque_1" xmlns="http://www.w3.org/2000/svg" version="1.1" viewBox="0 0 500 500">
  <!-- Generator: Adobe Illustrator 30.1.0, SVG Export Plug-In . SVG Version: 2.1.1 Build 136)  -->
  <defs>
    <style>
      .st0 {
        fill: none;
      }

      .st1 {
        fill: blue;
      }

      .st2 {
        fill: #575756;
      }
    </style>
  </defs>
  <g>
    <path class="st2" d="M401.96-116.07c-3.2,0-5.33,2.35-5.33,5.76,0,3.2,2.24,5.39,5.39,5.39s5.39-2.24,5.39-5.39c0-3.36-2.24-5.76-5.44-5.76Z"/>
    <path class="st2" d="M92.22-128.65c-2.88,0-5.23,1.07-7.04,3.25-1.81,2.19-2.72,4.91-2.72,8.27s.91,6.08,2.67,8.27c1.81,2.19,4.16,3.25,7.09,3.25s5.23-1.07,7.04-3.25c1.81-2.19,2.72-4.96,2.72-8.27s-.91-6.03-2.77-8.21c-1.81-2.19-4.16-3.31-6.99-3.31Z"/>
    <path class="st2" d="M12.1-145.69v61.91h465.49v-61.91H12.1ZM106.14-103.27c-3.57,3.63-8.21,5.44-13.92,5.44s-10.4-1.81-13.97-5.39c-3.52-3.63-5.28-8.27-5.28-13.92s1.76-10.24,5.33-13.87c3.57-3.63,8.21-5.44,13.92-5.44s10.35,1.81,13.92,5.44c3.57,3.63,5.33,8.27,5.33,13.87s-1.76,10.24-5.33,13.87ZM140.44-101.24c-2.61,2.29-6.13,3.41-10.56,3.41-6.67,0-11.79-1.76-16.86-5.97l5.12-6.77c3.47,3.25,7.47,5.01,11.36,5.01,3.47,0,5.44-1.33,5.44-3.73,0-1.76-1.07-2.72-5.07-3.63l-4.8-1.12c-6.88-1.65-10.24-5.28-10.24-11.09,0-3.2,1.28-5.87,3.89-8.05s6.03-3.25,10.24-3.25c5.6,0,10.67,1.71,15.15,5.49l-5.07,6.72c-3.47-2.93-6.99-4.32-10.45-4.32-2.77,0-4.37,1.12-4.37,2.88s1.07,2.67,4.43,3.47l5.28,1.28c7.04,1.71,10.45,5.17,10.45,10.67,0,3.68-1.33,6.72-3.95,9.01ZM173.61-108.55h-14.67v-7.2h14.67v7.2ZM216.82-103c-2.93,3.47-6.93,5.17-12.05,5.17s-9.12-1.71-12.05-5.17c-2.93-3.47-4.37-8.21-4.37-14.13s1.44-10.61,4.37-14.08c2.93-3.47,6.93-5.23,12.05-5.23s9.12,1.76,12.05,5.23c2.93,3.47,4.43,8.16,4.43,14.08s-1.49,10.67-4.43,14.13ZM251.33-98.46h-25.34v-7.47h8v-19.36c-2.56,1.65-5.97,2.51-9.6,2.51v-7.68c5.39,0,9.6-2.13,11.31-5.33h7.63v29.87h8v7.47ZM265.33-97.52h-7.7l16.22-39.92h7.56l-16.08,39.92ZM314.22-101.24c-2.61,2.29-6.13,3.41-10.56,3.41-6.67,0-11.79-1.76-16.86-5.97l5.12-6.77c3.47,3.25,7.47,5.01,11.36,5.01,3.47,0,5.44-1.33,5.44-3.73,0-1.76-1.07-2.72-5.07-3.63l-4.8-1.12c-6.88-1.65-10.24-5.28-10.24-11.09,0-3.2,1.28-5.87,3.89-8.05s6.03-3.25,10.24-3.25c5.6,0,10.67,1.71,15.15,5.49l-5.07,6.72c-3.47-2.93-6.99-4.32-10.45-4.32-2.77,0-4.37,1.12-4.37,2.88s1.07,2.67,4.43,3.47l5.28,1.28c7.04,1.71,10.45,5.17,10.45,10.67,0,3.68-1.33,6.72-3.95,9.01ZM347.5-101.24c-2.61,2.29-6.13,3.41-10.56,3.41-6.67,0-11.79-1.76-16.86-5.97l5.12-6.77c3.47,3.25,7.47,5.01,11.36,5.01,3.47,0,5.44-1.33,5.44-3.73,0-1.76-1.07-2.72-5.07-3.63l-4.8-1.12c-6.88-1.65-10.24-5.28-10.24-11.09,0-3.2,1.28-5.87,3.89-8.05,2.61-2.19,6.03-3.25,10.24-3.25,5.6,0,10.67,1.71,15.15,5.49l-5.07,6.72c-3.47-2.93-6.99-4.32-10.45-4.32-2.77,0-4.37,1.12-4.37,2.88s1.07,2.67,4.43,3.47l5.28,1.28c7.04,1.71,10.45,5.17,10.45,10.67,0,3.68-1.33,6.72-3.95,9.01ZM384.57-98.46h-29.6v-8.37l13.87-10.61c3.41-2.61,4.91-4.75,4.91-7.09,0-2.61-1.71-4.16-4.48-4.16-3.47,0-5.55,2.03-6.24,6.24l-8.85-1.44c1.33-7.84,7.2-12.53,15.52-12.53,4.16,0,7.47,1.07,9.87,3.2,2.45,2.13,3.68,4.96,3.68,8.43,0,5.28-2.51,9.23-8.85,13.65l-7.2,4.96h17.39v7.73ZM412.52-101.56c-2.77,2.51-6.29,3.73-10.56,3.73s-7.79-1.17-10.56-3.47c-2.72-2.35-4.11-5.33-4.11-8.96s1.28-7.52,3.79-11.63l8.48-13.92h10.56l-8.53,13.65c1.12-.37,2.4-.59,3.63-.59,3.41,0,6.19,1.07,8.32,3.25,2.13,2.13,3.2,4.96,3.2,8.48,0,3.79-1.39,6.93-4.21,9.44Z"/>
    <path class="st2" d="M204.76-128.71c-4.32,0-6.99,4.48-6.99,11.57s2.56,11.57,6.99,11.57,7.04-4.37,7.04-11.57-2.61-11.57-7.04-11.57Z"/>
  </g>
  <path class="st1" d="M26.45,224.56c9.62,0,10.99-5.27,11.77-10.79.06-.58.06-1.1.65-1.1s.58.46.58,1.04c-.06,2.34-.65,5.79-.65,10.01,0,.72,0,1.43.06,2.08-.52-.06-4.88-.19-26-.19-3.71,0-8.39.19-9.49.19-.45,0-.71-.32-.71-.65,0-.26.26-.58.71-.58h6.37v-44.2H3.37c-.45,0-.71-.33-.71-.65s.26-.58.71-.58c3.38.06,5.92.19,9.49.19,21.32,0,24.18,0,26-.19,0,1.17.06,3.9.19,5.27.33,4.03.33,5.46.39,6.56,0,.52,0,1.04-.58,1.04s-.58-.32-.65-1.04c-.39-5.4-.85-10.6-12.35-10.6h-9.69v18.85h2.93c7.93,0,7.74-3.83,7.8-7.35,0-.65.26-1.04.71-1.04.58,0,.58.46.58.98,0,2.86-.32,4.68-.32,8.06s.32,6.44.32,8.91c0,.58,0,1.04-.58,1.04-.65,0-.65-.72-.65-1.04-.46-5.79-.72-8.32-7.87-8.32h-2.93v24.12h10.27ZM21.44,176.2l3.71-8.26h5.27l-6.69,8.26h-2.28Z"/>
  <path class="st1" d="M49.33,180.36h-6.37c-.45,0-.65-.33-.65-.65s.13-.58.78-.58c.52,0,9.1.19,11.12.19s7.41-.19,9.69-.19c5.52,0,25.22,1.1,25.22,23.14,0,23.27-22.04,23.4-27.69,23.4-3.97,0-6.24-.06-8.71-.06-4.23,0-8.52.19-9.75.19-.45,0-.65-.32-.65-.65,0-.26.2-.58.65-.58h6.37v-44.2ZM55.83,224.37c9.56,0,26.46,0,26.46-22.04s-16.71-21.97-26.46-21.97v44.01Z"/>
  <path class="st1" d="M110.23,224.56c.46,0,.65.33.65.58,0,.33-.19.65-.65.65-3.25-.06-6.04-.19-9.3-.19-4.03,0-8.58.19-9.75.19-.39,0-.65-.32-.65-.65,0-.26.26-.58.65-.58h6.37v-44.2h-6.37c-.39,0-.65-.33-.65-.65s.26-.58.65-.58c3.32.06,6.05.19,9.36.19,4.03,0,8.52-.19,9.69-.19.46,0,.65.26.65.58s-.19.65-.65.65h-6.18v44.2h6.18Z"/>
  <path class="st1" d="M140.39,224.56c.39,0,.65.33.65.58,0,.33-.26.65-.65.65-3.32-.06-6.05-.19-9.36-.19-4.03,0-8.52.19-9.69.19-.46,0-.65-.32-.65-.65,0-.26.19-.58.65-.58h6.37v-44.2h-2.92c-10.86,0-11.44,5.53-12.03,10.79-.06.91-.26,1.04-.65,1.04-.58,0-.58-.39-.58-1.04l.71-12.03c3.06.13,4.88.19,10.08.19h17.23c5.2,0,7.09-.06,10.08-.19l.78,12.03c0,.65,0,1.04-.58,1.04s-.65-.33-.65-1.04c-.58-5.27-1.23-10.79-12.09-10.79h-2.86v44.2h6.18Z"/>
  <path class="st1" d="M170.55,224.56c.46,0,.65.33.65.58,0,.33-.19.65-.65.65-3.25-.06-6.05-.19-9.3-.19-4.03,0-8.58.19-9.75.19-.39,0-.65-.32-.65-.65,0-.26.26-.58.65-.58h6.37v-44.2h-6.37c-.39,0-.65-.33-.65-.65s.26-.58.65-.58c3.31.06,6.04.19,9.36.19,4.03,0,8.52-.19,9.69-.19.46,0,.65.26.65.58s-.19.65-.65.65h-6.18v44.2h6.18Z"/>
  <path class="st1" d="M172.5,202.2c0-12.68,9.56-24.25,22.82-24.25s22.88,11.57,22.88,24.25-9.62,24.25-22.88,24.25-22.82-11.57-22.82-24.25ZM211.37,202.2c0-11.57-3.97-23.01-16.06-23.01s-16.06,11.44-16.06,23.01,3.97,23.01,16.06,23.01,16.06-11.44,16.06-23.01Z"/>
  <path class="st1" d="M227.75,184.13v33.93c0,5.79,1.82,6.5,5.46,6.5h1.1c.39,0,.65.33.65.58,0,.33-.26.65-.65.65-3.38-.06-3.83-.19-7.02-.19-3.83,0-5.59.19-7.35.19-.39,0-.65-.32-.65-.65,0-.26.26-.58.65-.58h1.1c2.93,0,5.46-.71,5.46-4.81v-37.25c-1.1-2.02-1.82-2.15-2.67-2.15h-3.51c-.46,0-.65-.33-.65-.65,0-.2.06-.58.65-.58,2.34.13,4.29.19,5.72.19,2.41,0,4.88-.19,6.37-.19l23.73,36.01v-29.97c0-4.16-2.54-4.81-5.46-4.81h-1.11c-.39,0-.65-.33-.65-.65s.26-.58.65-.58c3.38.06,3.83.19,7.02.19,3.83,0,5.59-.19,7.34-.19.39,0,.65.26.65.58,0,.39-.26.65-.65.65h-1.1c-3.64,0-5.46.65-5.46,6.44v39.07c0,.72-.07,1.11-.65,1.11-.39,0-.91-.26-1.5-1.17l-27.5-41.67Z"/>
  <path class="st1" d="M268.18,224.3c0,.71-.2,1.04-.71,1.04-.46,0-.58-.33-.58-1.04v-13.33c0-.58.06-1.04.52-1.04.39,0,.71,0,.71,1.04,0,8.26,7.93,14.24,14.04,14.24,6.63,0,11.38-3.71,11.38-10.86,0-15.15-26.33-6.5-26.33-23.99,0-8.19,6.18-12.42,12.94-12.42,3.32,0,6.44,1.04,9.62,3.12,1.5.91,1.62.98,2.01.98.46,0,.46-.32.46-.84v-1.89c0-.71.2-1.04.71-1.04.58,0,.78.33.78,1.04.06,8,1.24,10.53,1.24,11.12,0,.26,0,.52-.46.52-.33,0-.78-.13-.98-1.04-1.3-6.83-7.61-10.6-13.52-10.6-5.07,0-10.27,3.06-10.27,8.45,0,12.61,27.43,4.03,27.43,23.92,0,5.4-4.1,14.76-15.02,14.76-6.7,0-10.47-5.14-12.74-5.14-.78,0-1.23,1.3-1.23,2.47v.52Z"/>
  <path class="st1" d="M.51,231.76v-1.28h299.91v1.28H.51Z"/>
  <path class="st1" d="M59.66,284.56c8.71,0,11.18-4.49,11.77-10.79.07-.78.2-1.11.65-1.11.58,0,.58.46.58,1.11-.2,2.99-.65,6.11-.65,9.95,0,.71,0,1.43.07,2.08-2.86-.2-4.36-.2-26-.2-1.43,0-4.23.13-5.79.2-.46,0-.72-.33-.72-.65,0-.26.26-.58.72-.58h2.67v-6.11c-4.03,5.27-9.95,8-16.38,8-13.26,0-22.88-11.57-22.88-24.25s9.62-24.25,22.88-24.25c6.44,0,12.42,2.73,16.38,8.06v-5.66h-2.67c-.46,0-.72-.33-.72-.65s.26-.58.72-.58c1.56.06,4.29.19,5.79.19,21.32,0,24.25,0,26-.19,0,1.17.06,3.9.19,5.27.33,3.58.26,4.23.39,6.56,0,.65,0,1.04-.58,1.04-.46,0-.65-.33-.65-1.04-.06-5.79-1.62-10.6-12.35-10.6h-9.69v18.85h2.93c5.2,0,7.74-.85,7.87-7.35,0-.71.19-1.04.65-1.04.58,0,.58.46.58,1.04-.26,6.44-.32,4.62-.32,8s.06,2.47.32,8.91c0,.58,0,1.04-.58,1.04-.46,0-.65-.33-.65-1.04-.13-7.28-2.67-8.32-7.87-8.32h-2.93v24.12h10.27ZM42.96,261.35c0-11.05-4.62-22.17-16.38-22.17s-16.06,11.44-16.06,23.01,3.97,23.01,16.06,23.01,16.38-11.31,16.38-23.86Z"/>
  <path class="st1" d="M95.22,284.56c.46,0,.65.33.65.58,0,.33-.19.65-.65.65-3.25-.07-6.04-.2-9.3-.2-4.03,0-8.58.2-9.75.2-.39,0-.65-.33-.65-.65,0-.26.26-.58.65-.58h6.37v-44.2h-6.37c-.39,0-.65-.33-.65-.65s.26-.58.65-.58c3.32.06,6.05.19,9.36.19,4.03,0,8.52-.19,9.69-.19.46,0,.65.26.65.58s-.19.65-.65.65h-6.18v44.2h6.18Z"/>
  <path class="st1" d="M120.89,284.56c9.62,0,10.99-5.27,11.77-10.79.06-.58.13-1.11.65-1.11.58,0,.58.46.58,1.04-.06,2.34-.65,5.79-.65,10.01,0,.71,0,1.43.06,2.08-2.86-.2-4.36-.2-26-.2-3.71,0-8.39.2-9.49.2-.45,0-.71-.33-.71-.65,0-.26.26-.58.71-.58h6.37v-44.2h-6.37c-.45,0-.71-.33-.71-.65s.26-.58.71-.58c3.25.06,6.05.19,9.3.19,4.03,0,8.52-.19,9.69-.19.46,0,.71.26.71.58s-.26.65-.71.65h-6.18v44.2h10.27Z"/>
  <path class="st1" d="M.51,291.91v-1.43h148.26v1.43H.51Z"/>
  <path class="st1" d="M6.04,344.3c0,.71-.2,1.04-.72,1.04-.46,0-.58-.33-.58-1.04v-13.33c0-.58.06-1.04.52-1.04.39,0,.72,0,.72,1.04,0,8.26,7.93,14.24,14.04,14.24,6.63,0,11.38-3.71,11.38-10.86,0-15.15-26.33-6.5-26.33-23.99,0-8.19,6.18-12.42,12.94-12.42,3.31,0,6.44,1.04,9.62,3.12,1.5.91,1.62.97,2.02.97.46,0,.46-.33.46-.84v-1.88c0-.72.19-1.04.71-1.04.58,0,.78.33.78,1.04.06,8,1.23,10.53,1.23,11.12,0,.26,0,.52-.46.52-.32,0-.78-.13-.98-1.04-1.3-6.83-7.6-10.59-13.52-10.59-5.07,0-10.27,3.05-10.27,8.45,0,12.61,27.43,4.03,27.43,23.92,0,5.39-4.09,14.75-15.02,14.75-6.69,0-10.47-5.13-12.74-5.13-.78,0-1.23,1.3-1.23,2.47v.52Z"/>
  <path class="st1" d="M38.21,322.2c0-12.68,9.56-24.25,22.82-24.25s22.88,11.57,22.88,24.25-9.62,24.25-22.88,24.25-22.82-11.57-22.82-24.25ZM77.08,322.2c0-11.57-3.97-23.01-16.06-23.01s-16.06,11.44-16.06,23.01,3.97,23.01,16.06,23.01,16.06-11.44,16.06-23.01Z"/>
  <path class="st1" d="M123.04,305.17c0-4.16-2.54-4.81-5.46-4.81h-1.1c-.39,0-.65-.32-.65-.65s.26-.58.65-.58c3.38.06,3.77.2,7.15.2s3.77-.13,7.22-.2c.39,0,.65.26.65.58,0,.39-.26.65-.65.65h-1.1c-3.64,0-5.46.65-5.46,6.44v23.14c0,10.21-2.4,16.51-13.91,16.51-15.67,0-19.11-5.2-19.11-17.81v-28.28h-6.37c-.46,0-.72-.32-.72-.65s.26-.58.72-.58c3.38.06,6.11.2,9.49.2s6.11-.13,9.49-.2c.46,0,.72.26.72.58s-.26.65-.72.65h-6.18v29.25c0,9.75.26,15.6,12.68,15.6,10.21,0,12.68-5.07,12.68-14.95v-25.09Z"/>
  <path class="st1" d="M135.52,304.26c-1.37-3.71-1.89-3.9-2.99-3.9h-3.9c-.39,0-.65-.32-.65-.65s.26-.58.65-.58c3.83.06,5.52.2,9.88.2,5.46,0,9.23-.2,9.82-.2.85,0,.98.26.98.52,0,.39-.26.71-.71.71h-3.97c-1.62,0-2.67.13-2.67,1.37,0,.39.13.91.33,1.56l12.22,33.54,9.49-28.34c.71-2.28,1.23-4.1,1.23-5.4,0-1.88-.91-2.73-3.25-2.73h-2.41c-.39,0-.65-.32-.65-.65s.26-.58.65-.58c3.38.06,4.42.2,7.54.2,3.9,0,5.65-.2,7.35-.2.45,0,.71.26.71.58s-.26.65-.71.65h-1.1c-2.93,0-5.72.91-7.15,5.14l-13.26,39.26c-.46,1.3-.78,2.21-1.3,2.21-.33,0-.52-.2-.91-1.17l-15.21-41.54Z"/>
  <path class="st1" d="M196.03,344.56c9.62,0,10.99-5.27,11.77-10.79.06-.58.06-1.11.65-1.11s.58.46.58,1.04c-.06,2.34-.65,5.79-.65,10.01,0,.71,0,1.43.06,2.08-.52-.07-4.88-.2-26-.2-3.71,0-8.39.2-9.49.2-.45,0-.71-.33-.71-.65,0-.26.26-.58.71-.58h6.37v-44.2h-6.37c-.45,0-.71-.32-.71-.65s.26-.58.71-.58c3.38.06,5.92.2,9.49.2,21.32,0,24.18,0,26-.2,0,1.17.06,3.9.19,5.26.33,4.03.33,5.46.39,6.57,0,.52,0,1.04-.58,1.04s-.58-.33-.65-1.04c-.39-5.39-.85-10.6-12.35-10.6h-9.69v18.85h2.93c7.93,0,7.74-3.84,7.8-7.35,0-.65.26-1.04.71-1.04.58,0,.58.46.58.98,0,2.86-.32,4.68-.32,8.06s.32,6.44.32,8.91c0,.58,0,1.04-.58,1.04-.65,0-.65-.71-.65-1.04-.46-5.79-.72-8.32-7.87-8.32h-2.93v24.12h10.27Z"/>
  <path class="st1" d="M231.46,344.56c.39,0,.65.33.65.65s-.26.58-.65.58c-3.25-.07-5.98-.2-9.3-.2-3.97,0-8.78.2-9.43.2-.78,0-.91-.2-.91-.58,0-.33.2-.65.65-.65h6.37v-44.27h-6.37c-.45,0-.65-.33-.65-.65s.13-.58.78-.58c.52,0,9.04.26,11.25.26,1.95,0,3.84-.2,6.37-.2,7.22,0,16.9,1.43,16.9,11.18,0,7.15-5.4,10.72-11.38,11.63,10.86,2.08,10.92,8.71,10.92,15.67,0,3.38.33,7.28,3.84,7.28,1.36,0,2.53-.58,2.92-.78.26-.13.46-.2.58-.2.39,0,.46.26.46.46s-.07.39-.33.58c-.26.26-1.5,1.17-4.81,1.17-8.52,0-9.17-5.79-9.3-10.79-.26-8.12-.46-12.81-11.38-12.81h-3.32v22.04h6.11ZM227.82,321.29c5.27,0,12.55-.52,12.55-10.21s-7.61-10.79-15.02-10.79v21h2.47Z"/>
  <path class="st1" d="M296.33,344.56c.39,0,.65.33.65.58,0,.33-.26.65-.65.65-3.84-.07-5.53-.2-9.88-.2-5.46,0-9.23.2-9.82.2-.84,0-.91-.33-.91-.58,0-.33.2-.65.65-.65h3.96c1.89,0,2.73-.13,2.73-1.3,0-.52-.13-.98-.39-1.69l-4.75-13h-14.37l-2.6,7.8c-.72,2.34-1.24,4.1-1.24,5.46,0,1.89.97,2.73,3.25,2.73h2.41c.46,0,.65.33.65.58,0,.33-.19.65-.65.65-3.32-.07-4.42-.2-7.54-.2-3.9,0-5.59.2-7.35.2-.46,0-.71-.33-.71-.65,0-.26.26-.58.71-.58h1.1c3.84,0,5.92-1.43,7.15-5.13l13.26-39.26c.46-1.3.78-2.21,1.3-2.21.33,0,.52.13.91,1.17l15.21,41.54c1.24,3.38,1.88,3.83,2.99,3.9h3.9ZM270.46,308.03l-6.44,19.31h13.46l-7.02-19.31Z"/>
  <path class="st1" d="M314.27,344.56c.45,0,.65.33.65.58,0,.33-.2.65-.65.65-3.25-.07-6.05-.2-9.3-.2-4.03,0-8.58.2-9.75.2-.39,0-.65-.33-.65-.65,0-.26.26-.58.65-.58h6.37v-44.2h-6.37c-.39,0-.65-.32-.65-.65s.26-.58.65-.58c3.31.06,6.04.2,9.36.2,4.03,0,8.51-.2,9.69-.2.45,0,.65.26.65.58s-.2.65-.65.65h-6.18v44.2h6.18Z"/>
  <path class="st1" d="M324.6,304.13v33.93c0,5.79,1.82,6.5,5.46,6.5h1.11c.39,0,.65.33.65.58,0,.33-.26.65-.65.65-3.38-.07-3.84-.2-7.02-.2-3.83,0-5.59.2-7.35.2-.39,0-.65-.33-.65-.65,0-.26.26-.58.65-.58h1.11c2.92,0,5.46-.71,5.46-4.81v-37.25c-1.11-2.01-1.82-2.15-2.67-2.15h-3.51c-.46,0-.65-.32-.65-.65,0-.2.07-.58.65-.58,2.34.13,4.29.2,5.72.2,2.41,0,4.88-.2,6.37-.2l23.73,36.01v-29.97c0-4.16-2.53-4.81-5.46-4.81h-1.1c-.39,0-.65-.32-.65-.65s.26-.58.65-.58c3.38.06,3.83.2,7.02.2,3.84,0,5.59-.2,7.35-.2.39,0,.65.26.65.58,0,.39-.26.65-.65.65h-1.11c-3.64,0-5.46.65-5.46,6.44v39.07c0,.71-.06,1.11-.65,1.11-.39,0-.91-.26-1.5-1.17l-27.5-41.67Z"/>
  <path class="st1" d="M.51,352.01v-1.54h362.7v1.54H.51Z"/>
  <g>
    <rect class="st0" x="-461.01" y="33.53" width="456.07" height="280.25"/>
    <path class="st1" d="M-435.08,128.21c9.62,0,10.99-5.27,11.77-10.79.06-.58.06-1.1.65-1.1s.58.46.58,1.04c-.06,2.34-.65,5.79-.65,10.01,0,.72,0,1.43.06,2.08-.52-.06-4.88-.19-26-.19-3.71,0-8.39.19-9.49.19-.45,0-.71-.32-.71-.65,0-.26.26-.58.71-.58h6.37v-44.2h-6.37c-.45,0-.71-.33-.71-.65s.26-.58.71-.58c3.38.06,5.92.19,9.49.19,21.32,0,24.18,0,26-.19,0,1.17.06,3.9.19,5.27.33,4.03.33,5.46.39,6.56,0,.52,0,1.04-.58,1.04s-.58-.32-.65-1.04c-.39-5.4-.85-10.6-12.35-10.6h-9.69v18.85h2.93c7.93,0,7.74-3.83,7.8-7.35,0-.65.26-1.04.71-1.04.58,0,.58.46.58.98,0,2.86-.32,4.68-.32,8.06s.32,6.44.32,8.91c0,.58,0,1.04-.58,1.04-.65,0-.65-.72-.65-1.04-.46-5.79-.72-8.32-7.87-8.32h-2.93v24.12h10.27ZM-440.08,79.85l3.71-8.26h5.27l-6.69,8.26h-2.28Z"/>
    <path class="st1" d="M-412.2,84.01h-6.37c-.45,0-.65-.33-.65-.65s.13-.58.78-.58c.52,0,9.1.19,11.12.19s7.41-.19,9.69-.19c5.52,0,25.22,1.1,25.22,23.14,0,23.27-22.04,23.4-27.69,23.4-3.97,0-6.24-.06-8.71-.06-4.23,0-8.52.19-9.75.19-.45,0-.65-.32-.65-.65,0-.26.2-.58.65-.58h6.37v-44.2ZM-405.7,128.02c9.56,0,26.46,0,26.46-22.04s-16.71-21.97-26.46-21.97v44.01Z"/>
    <path class="st1" d="M-351.29,128.21c.46,0,.65.33.65.58,0,.33-.19.65-.65.65-3.25-.06-6.04-.19-9.3-.19-4.03,0-8.58.19-9.75.19-.39,0-.65-.32-.65-.65,0-.26.26-.58.65-.58h6.37v-44.2h-6.37c-.39,0-.65-.33-.65-.65s.26-.58.65-.58c3.32.06,6.05.19,9.36.19,4.03,0,8.52-.19,9.69-.19.46,0,.65.26.65.58s-.19.65-.65.65h-6.18v44.2h6.18Z"/>
    <path class="st1" d="M-321.13,128.21c.39,0,.65.33.65.58,0,.33-.26.65-.65.65-3.32-.06-6.05-.19-9.36-.19-4.03,0-8.52.19-9.69.19-.46,0-.65-.32-.65-.65,0-.26.19-.58.65-.58h6.37v-44.2h-2.92c-10.86,0-11.44,5.53-12.03,10.79-.06.91-.26,1.04-.65,1.04-.58,0-.58-.39-.58-1.04l.71-12.03c3.06.13,4.88.19,10.08.19h17.23c5.2,0,7.09-.06,10.08-.19l.78,12.03c0,.65,0,1.04-.58,1.04s-.65-.33-.65-1.04c-.58-5.27-1.23-10.79-12.09-10.79h-2.86v44.2h6.18Z"/>
    <path class="st1" d="M-290.97,128.21c.46,0,.65.33.65.58,0,.33-.19.65-.65.65-3.25-.06-6.05-.19-9.3-.19-4.03,0-8.58.19-9.75.19-.39,0-.65-.32-.65-.65,0-.26.26-.58.65-.58h6.37v-44.2h-6.37c-.39,0-.65-.33-.65-.65s.26-.58.65-.58c3.31.06,6.04.19,9.36.19,4.03,0,8.52-.19,9.69-.19.46,0,.65.26.65.58s-.19.65-.65.65h-6.18v44.2h6.18Z"/>
    <path class="st1" d="M-289.02,105.85c0-12.68,9.56-24.25,22.82-24.25s22.88,11.57,22.88,24.25-9.62,24.25-22.88,24.25-22.82-11.57-22.82-24.25ZM-250.15,105.85c0-11.57-3.97-23.01-16.06-23.01s-16.06,11.44-16.06,23.01,3.97,23.01,16.06,23.01,16.06-11.44,16.06-23.01Z"/>
    <path class="st1" d="M-233.77,87.78v33.93c0,5.79,1.82,6.5,5.46,6.5h1.1c.39,0,.65.33.65.58,0,.33-.26.65-.65.65-3.38-.06-3.83-.19-7.02-.19-3.83,0-5.59.19-7.35.19-.39,0-.65-.32-.65-.65,0-.26.26-.58.65-.58h1.1c2.93,0,5.46-.71,5.46-4.81v-37.25c-1.1-2.02-1.82-2.15-2.67-2.15h-3.51c-.46,0-.65-.33-.65-.65,0-.2.06-.58.65-.58,2.34.13,4.29.19,5.72.19,2.41,0,4.88-.19,6.37-.19l23.73,36.01v-29.97c0-4.16-2.54-4.81-5.46-4.81h-1.11c-.39,0-.65-.33-.65-.65s.26-.58.65-.58c3.38.06,3.84.19,7.02.19,3.83,0,5.59-.19,7.34-.19.39,0,.65.26.65.58,0,.39-.26.65-.65.65h-1.1c-3.64,0-5.46.65-5.46,6.44v39.07c0,.72-.07,1.11-.65,1.11-.39,0-.91-.26-1.5-1.17l-27.5-41.67Z"/>
    <path class="st1" d="M-193.34,127.95c0,.71-.2,1.04-.71,1.04-.46,0-.58-.33-.58-1.04v-13.33c0-.58.06-1.04.52-1.04.39,0,.71,0,.71,1.04,0,8.26,7.93,14.24,14.04,14.24,6.63,0,11.38-3.71,11.38-10.86,0-15.15-26.33-6.5-26.33-23.99,0-8.19,6.18-12.42,12.94-12.42,3.32,0,6.44,1.04,9.62,3.12,1.5.91,1.62.98,2.01.98.46,0,.46-.32.46-.84v-1.89c0-.71.2-1.04.71-1.04.58,0,.78.33.78,1.04.06,8,1.24,10.53,1.24,11.12,0,.26,0,.52-.46.52-.33,0-.78-.13-.98-1.04-1.3-6.83-7.61-10.6-13.52-10.6-5.07,0-10.27,3.06-10.27,8.45,0,12.61,27.43,4.03,27.43,23.92,0,5.4-4.1,14.76-15.02,14.76-6.7,0-10.47-5.14-12.74-5.14-.78,0-1.23,1.3-1.23,2.47v.52Z"/>
    <path class="st1" d="M-461.01,137.38v-3.25H-161.1v3.25h-299.91Z"/>
    <path class="st1" d="M-401.86,188.21c8.71,0,11.18-4.49,11.77-10.79.07-.78.2-1.11.65-1.11.58,0,.58.46.58,1.11-.2,2.99-.65,6.11-.65,9.95,0,.71,0,1.43.07,2.08-2.86-.2-4.36-.2-26-.2-1.43,0-4.23.13-5.79.2-.46,0-.72-.33-.72-.65,0-.26.26-.58.72-.58h2.67v-6.11c-4.03,5.27-9.95,8-16.38,8-13.26,0-22.88-11.57-22.88-24.25s9.62-24.25,22.88-24.25c6.44,0,12.42,2.73,16.38,8.06v-5.66h-2.67c-.46,0-.72-.33-.72-.65s.26-.58.72-.58c1.56.06,4.29.19,5.79.19,21.32,0,24.25,0,26-.19,0,1.17.06,3.9.19,5.27.33,3.58.26,4.23.39,6.56,0,.65,0,1.04-.58,1.04-.46,0-.65-.32-.65-1.04-.06-5.79-1.62-10.6-12.35-10.6h-9.69v18.85h2.93c5.2,0,7.74-.85,7.87-7.35,0-.71.19-1.04.65-1.04.58,0,.58.46.58,1.04-.26,6.44-.32,4.62-.32,8s.06,2.47.32,8.91c0,.58,0,1.04-.58,1.04-.46,0-.65-.33-.65-1.04-.13-7.28-2.67-8.32-7.87-8.32h-2.93v24.12h10.27ZM-418.56,165.01c0-11.05-4.62-22.17-16.38-22.17s-16.06,11.44-16.06,23.01,3.97,23.01,16.06,23.01,16.38-11.31,16.38-23.86Z"/>
    <path class="st1" d="M-366.31,188.21c.46,0,.65.33.65.58,0,.33-.19.65-.65.65-3.25-.07-6.04-.2-9.3-.2-4.03,0-8.58.2-9.75.2-.39,0-.65-.33-.65-.65,0-.26.26-.58.65-.58h6.37v-44.2h-6.37c-.39,0-.65-.33-.65-.65s.26-.58.65-.58c3.32.06,6.05.19,9.36.19,4.03,0,8.52-.19,9.69-.19.46,0,.65.26.65.58s-.19.65-.65.65h-6.18v44.2h6.18Z"/>
    <path class="st1" d="M-340.63,188.21c9.62,0,10.99-5.27,11.77-10.79.06-.58.13-1.11.65-1.11.58,0,.58.46.58,1.04-.06,2.34-.65,5.79-.65,10.01,0,.71,0,1.43.06,2.08-2.86-.2-4.36-.2-26-.2-3.71,0-8.39.2-9.49.2-.45,0-.71-.33-.71-.65,0-.26.26-.58.71-.58h6.37v-44.2h-6.37c-.45,0-.71-.33-.71-.65s.26-.58.71-.58c3.25.06,6.05.19,9.3.19,4.03,0,8.52-.19,9.69-.19.46,0,.71.26.71.58s-.26.65-.71.65h-6.18v44.2h10.27Z"/>
    <path class="st1" d="M-461.01,197.38v-3.25h148.26v3.25h-148.26Z"/>
    <path class="st1" d="M-455.49,247.95c0,.71-.2,1.04-.72,1.04-.46,0-.58-.33-.58-1.04v-13.33c0-.58.06-1.04.52-1.04.39,0,.72,0,.72,1.04,0,8.26,7.93,14.24,14.04,14.24,6.63,0,11.38-3.71,11.38-10.86,0-15.15-26.33-6.5-26.33-23.99,0-8.19,6.18-12.42,12.94-12.42,3.31,0,6.44,1.04,9.62,3.12,1.5.91,1.62.97,2.02.97.46,0,.46-.33.46-.84v-1.88c0-.72.19-1.04.71-1.04.58,0,.78.33.78,1.04.06,8,1.23,10.53,1.23,11.12,0,.26,0,.52-.46.52-.32,0-.78-.13-.98-1.04-1.3-6.83-7.6-10.59-13.52-10.59-5.07,0-10.27,3.05-10.27,8.45,0,12.61,27.43,4.03,27.43,23.92,0,5.39-4.09,14.75-15.02,14.75-6.69,0-10.47-5.13-12.74-5.13-.78,0-1.23,1.3-1.23,2.47v.52Z"/>
    <path class="st1" d="M-423.31,225.85c0-12.68,9.56-24.25,22.82-24.25s22.88,11.57,22.88,24.25-9.62,24.25-22.88,24.25-22.82-11.57-22.82-24.25ZM-384.44,225.85c0-11.57-3.97-23.01-16.06-23.01s-16.06,11.44-16.06,23.01,3.97,23.01,16.06,23.01,16.06-11.44,16.06-23.01Z"/>
    <path class="st1" d="M-338.48,208.82c0-4.16-2.54-4.81-5.46-4.81h-1.1c-.39,0-.65-.32-.65-.65s.26-.58.65-.58c3.38.06,3.77.2,7.15.2s3.77-.13,7.22-.2c.39,0,.65.26.65.58,0,.39-.26.65-.65.65h-1.1c-3.64,0-5.46.65-5.46,6.44v23.14c0,10.21-2.4,16.51-13.91,16.51-15.67,0-19.11-5.2-19.11-17.81v-28.28h-6.37c-.46,0-.72-.32-.72-.65s.26-.58.72-.58c3.38.06,6.11.2,9.49.2s6.11-.13,9.49-.2c.46,0,.72.26.72.58s-.26.65-.72.65h-6.18v29.25c0,9.75.26,15.6,12.68,15.6,10.21,0,12.68-5.07,12.68-14.95v-25.09Z"/>
    <path class="st1" d="M-326.01,207.91c-1.37-3.71-1.89-3.9-2.99-3.9h-3.9c-.39,0-.65-.32-.65-.65s.26-.58.65-.58c3.83.06,5.52.2,9.88.2,5.46,0,9.23-.2,9.82-.2.85,0,.98.26.98.52,0,.39-.26.71-.71.71h-3.97c-1.62,0-2.67.13-2.67,1.37,0,.39.13.91.33,1.56l12.22,33.54,9.49-28.34c.71-2.28,1.23-4.1,1.23-5.4,0-1.88-.91-2.73-3.25-2.73h-2.41c-.39,0-.65-.32-.65-.65s.26-.58.65-.58c3.38.06,4.42.2,7.54.2,3.9,0,5.65-.2,7.35-.2.45,0,.71.26.71.58s-.26.65-.71.65h-1.1c-2.93,0-5.72.91-7.15,5.14l-13.26,39.26c-.46,1.3-.78,2.21-1.3,2.21-.33,0-.52-.2-.91-1.17l-15.21-41.54Z"/>
    <path class="st1" d="M-265.49,248.21c9.62,0,10.99-5.27,11.77-10.79.06-.58.06-1.11.65-1.11s.58.46.58,1.04c-.06,2.34-.65,5.79-.65,10.01,0,.71,0,1.43.06,2.08-.52-.07-4.88-.2-26-.2-3.71,0-8.39.2-9.49.2-.45,0-.71-.33-.71-.65,0-.26.26-.58.71-.58h6.37v-44.2h-6.37c-.45,0-.71-.32-.71-.65s.26-.58.71-.58c3.38.06,5.92.2,9.49.2,21.32,0,24.18,0,26-.2,0,1.17.06,3.9.19,5.26.33,4.03.33,5.46.39,6.57,0,.52,0,1.04-.58,1.04s-.58-.33-.65-1.04c-.39-5.39-.85-10.6-12.35-10.6h-9.69v18.85h2.93c7.93,0,7.74-3.84,7.8-7.35,0-.65.26-1.04.71-1.04.58,0,.58.46.58.98,0,2.86-.32,4.68-.32,8.06s.32,6.44.32,8.91c0,.58,0,1.04-.58,1.04-.65,0-.65-.71-.65-1.04-.46-5.79-.72-8.32-7.87-8.32h-2.93v24.12h10.27Z"/>
    <path class="st1" d="M-230.07,248.21c.39,0,.65.33.65.65s-.26.58-.65.58c-3.25-.07-5.98-.2-9.3-.2-3.97,0-8.78.2-9.43.2-.78,0-.91-.2-.91-.58,0-.33.2-.65.65-.65h6.37v-44.27h-6.37c-.45,0-.65-.33-.65-.65s.13-.58.78-.58c.52,0,9.04.26,11.25.26,1.95,0,3.84-.2,6.37-.2,7.22,0,16.9,1.43,16.9,11.18,0,7.15-5.4,10.72-11.38,11.63,10.86,2.08,10.92,8.71,10.92,15.67,0,3.38.33,7.28,3.84,7.28,1.36,0,2.53-.58,2.92-.78.26-.13.46-.2.58-.2.39,0,.46.26.46.46s-.06.39-.33.58c-.26.26-1.49,1.17-4.81,1.17-8.52,0-9.17-5.79-9.3-10.79-.26-8.12-.46-12.81-11.38-12.81h-3.32v22.04h6.11ZM-233.71,224.94c5.27,0,12.55-.52,12.55-10.21s-7.61-10.79-15.02-10.79v21h2.47Z"/>
    <path class="st1" d="M-165.2,248.21c.39,0,.65.33.65.58,0,.33-.26.65-.65.65-3.84-.07-5.53-.2-9.88-.2-5.46,0-9.23.2-9.82.2-.84,0-.91-.33-.91-.58,0-.33.2-.65.65-.65h3.96c1.89,0,2.73-.13,2.73-1.3,0-.52-.13-.98-.39-1.69l-4.75-13h-14.37l-2.6,7.8c-.72,2.34-1.24,4.1-1.24,5.46,0,1.89.97,2.73,3.25,2.73h2.41c.46,0,.65.33.65.58,0,.33-.19.65-.65.65-3.32-.07-4.42-.2-7.54-.2-3.9,0-5.59.2-7.35.2-.46,0-.71-.33-.71-.65,0-.26.26-.58.71-.58h1.1c3.84,0,5.92-1.43,7.15-5.13l13.26-39.26c.46-1.3.78-2.21,1.3-2.21.33,0,.52.13.91,1.17l15.21,41.54c1.24,3.38,1.88,3.83,2.99,3.9h3.9ZM-191.07,211.68l-6.44,19.31h13.46l-7.02-19.31Z"/>
    <path class="st1" d="M-147.26,248.21c.45,0,.65.33.65.58,0,.33-.2.65-.65.65-3.25-.07-6.05-.2-9.3-.2-4.03,0-8.58.2-9.75.2-.39,0-.65-.33-.65-.65,0-.26.26-.58.65-.58h6.37v-44.2h-6.37c-.39,0-.65-.32-.65-.65s.26-.58.65-.58c3.31.06,6.04.2,9.36.2,4.03,0,8.51-.2,9.69-.2.45,0,.65.26.65.58s-.2.65-.65.65h-6.18v44.2h6.18Z"/>
    <path class="st1" d="M-136.92,207.78v33.93c0,5.79,1.82,6.5,5.46,6.5h1.11c.39,0,.65.33.65.58,0,.33-.26.65-.65.65-3.38-.07-3.84-.2-7.02-.2-3.83,0-5.59.2-7.35.2-.39,0-.65-.33-.65-.65,0-.26.26-.58.65-.58h1.11c2.92,0,5.46-.71,5.46-4.81v-37.25c-1.11-2.01-1.82-2.15-2.67-2.15h-3.51c-.46,0-.65-.32-.65-.65,0-.2.07-.58.65-.58,2.34.13,4.29.2,5.72.2,2.41,0,4.88-.2,6.37-.2l23.73,36.01v-29.97c0-4.16-2.53-4.81-5.46-4.81h-1.1c-.39,0-.65-.32-.65-.65s.26-.58.65-.58c3.38.06,3.83.2,7.02.2,3.84,0,5.59-.2,7.35-.2.39,0,.65.26.65.58,0,.39-.26.65-.65.65h-1.11c-3.64,0-5.46.65-5.46,6.44v39.07c0,.71-.06,1.11-.65,1.11-.39,0-.91-.26-1.5-1.17l-27.5-41.67Z"/>
    <path class="st1" d="M-461.01,257.38v-3.25H-98.31v3.25h-362.7Z"/>
  </g>
</svg>